<svg t="1709465149797" class="icon" viewBox="0 0 1024 1024" version="1.1" xmlns="http://www.w3.org/2000/svg" p-id="2119" width="200" height="200"><path d="M512 170.666667c-141.376 0-256 114.624-256 256 0 43.861333 15.530667 92.885333 41.877333 143.701333 26.154667 50.432 61.525333 99.882667 97.706667 143.850667A1376 1376 0 0 0 512 838.314667a1376 1376 0 0 0 116.394667-124.117334c36.202667-43.946667 71.573333-93.397333 97.728-143.829333C752.469333 519.552 768 470.528 768 426.666667c0-141.376-114.624-256-256-256z m0 725.333333l-27.776 32.384-0.106667-0.085333-0.213333-0.192-0.746667-0.64a640.234667 640.234667 0 0 1-12.672-11.306667 1461.930667 1461.930667 0 0 1-140.757333-147.712c-38.464-46.72-77.76-101.248-107.605333-158.805333C192.469333 552.469333 170.666667 489.472 170.666667 426.666667c0-188.522667 152.810667-341.333333 341.333333-341.333334s341.333333 152.810667 341.333333 341.333334c0 62.805333-21.802667 125.781333-51.456 182.976-29.845333 57.557333-69.12 112.106667-107.605333 158.805333a1461.930667 1461.930667 0 0 1-140.757333 147.712 880.746667 880.746667 0 0 1-12.672 11.306667l-0.746667 0.64-0.213333 0.213333-0.085334 0.042667S539.776 928.405333 512 896z m0 0l-27.776 32.384a42.688 42.688 0 0 0 55.552 0L512 896z m0-554.666667a85.333333 85.333333 0 1 0 0 170.666667 85.333333 85.333333 0 0 0 0-170.666667z m-170.666667 85.333334a170.666667 170.666667 0 1 1 341.333334 0 170.666667 170.666667 0 0 1-341.333334 0z" fill="#ffffff" p-id="2120"></path></svg>