<svg t="1709465527983" class="icon" viewBox="0 0 1024 1024" version="1.1" xmlns="http://www.w3.org/2000/svg" p-id="2333" width="200" height="200"><path d="M483.648 96.106667a42.666667 42.666667 0 0 1 56.704 0l384 341.333333a42.666667 42.666667 0 0 1-56.704 63.786667L853.333333 488.490667V810.666667a85.333333 85.333333 0 0 1-85.333333 85.333333H256a85.333333 85.333333 0 0 1-85.333333-85.333333V488.490667l-14.314667 12.736a42.666667 42.666667 0 1 1-56.704-63.786667l384-341.333333zM256 412.650667V810.666667h128V597.333333a42.666667 42.666667 0 0 1 42.666667-42.666666h170.666666a42.666667 42.666667 0 0 1 42.666667 42.666666v213.333334h128V412.650667L512 185.088 256 412.650667zM554.666667 810.666667v-170.666667h-85.333334v170.666667h85.333334z" fill="#ffffff" p-id="2334"></path></svg>