<svg t="1709550386738" class="icon" viewBox="0 0 1024 1024" version="1.1" xmlns="http://www.w3.org/2000/svg" p-id="3944" width="200" height="200"><path d="M512 106.666667a42.666667 42.666667 0 0 1 38.165333 23.594666l110.037334 220.053334 241.92 35.2a42.666667 42.666667 0 0 1 23.68 72.768l-176.106667 171.690666 39.616 242.069334a42.666667 42.666667 0 0 1-62.101333 44.586666L512 802.432l-215.210667 114.197333a42.666667 42.666667 0 0 1-62.08-44.586666l39.594667-242.069334-176.085333-171.690666a42.666667 42.666667 0 0 1 23.637333-72.768l241.941333-35.2 110.037334-220.053334A42.666667 42.666667 0 0 1 512.021333 106.666667z m0 138.069333l-81.834667 163.669333a42.666667 42.666667 0 0 1-32.021333 23.146667l-178.474667 25.962667 130.133334 126.869333a42.666667 42.666667 0 0 1 12.309333 37.44L332.8 800.917333l159.210667-84.48a42.666667 42.666667 0 0 1 40 0l159.189333 84.48-29.312-179.093333a42.666667 42.666667 0 0 1 12.330667-37.44l130.133333-126.869333-178.496-25.962667a42.666667 42.666667 0 0 1-32-23.146667L512 244.736z" fill="#ffffff" p-id="3945"></path></svg>