<svg t="1709809433303" class="icon" viewBox="0 0 1024 1024" version="1.1" xmlns="http://www.w3.org/2000/svg" p-id="8244" width="200" height="200"><path d="M996.861 511.98c0 261.957-212.25 474.29-474.208 474.29-261.957 0-474.29-212.333-474.29-474.29 0-261.953 212.333-474.291 474.29-474.291 261.958 0 474.208 212.338 474.208 474.291" fill="#F5C754" p-id="8245"></path><path d="M522.653 99.499c250.493 0 453.588 175.462 453.588 391.777h20.106C984.539 238.26 775.969 39.185 522.653 39.185S60.682 238.26 48.961 491.277h20.018c0-216.316 203.099-391.778 453.674-391.778" fill="#F5DC6B" p-id="8246"></path><path d="M976.241 491.277c0 216.444-203.095 391.819-453.588 391.819-250.575 0-453.675-175.375-453.675-391.819H48.961c-0.34 6.89-0.598 13.772-0.598 20.703 0 261.957 212.333 474.29 474.29 474.29 261.958 0 474.208-212.333 474.208-474.29 0-6.931-0.258-13.813-0.514-20.703h-20.106z" fill="#F4AD32" p-id="8247"></path><path d="M740.894 108.439c9.238 9.197 11.377 22.112 4.79 28.702-6.76 6.673-19.679 4.535-28.831-4.663-9.238-9.238-11.377-22.116-4.703-28.789 6.672-6.627 19.503-4.533 28.744 4.75M585.362 83.414c4.535 4.663 5.559 11.079 2.223 14.374-3.25 3.378-9.666 2.309-14.288-2.309-4.703-4.58-5.731-11.079-2.395-14.374 3.337-3.336 9.757-2.267 14.46 2.309M670.482 75.717c18.481 18.519 22.672 44.27 9.413 57.574-13.26 13.217-39.011 9.026-57.574-9.454-18.481-18.523-22.672-44.229-9.412-57.533 13.346-13.304 39.096-9.068 57.573 9.413M625.74 511.98v20.619c0 22.843-46.196 41.149-103.087 41.149-56.977 0-103.087-18.307-103.087-41.149V511.98H625.74z" fill="#F6F9FC" p-id="8248"></path><path d="M625.74 532.599v165.026c0 22.754 0 41.234-20.615 41.234-26.862-9.412-54.499-16.425-82.472-20.876a471.834 471.834 0 0 0-82.472 20.876c-20.615 0-20.615-18.48-20.615-41.234V532.599c0 22.843 46.11 41.149 103.087 41.149 56.891 0 103.087-18.306 103.087-41.149" fill="#d81e06" p-id="8249"></path><path d="M337.096 309.482v638.975c-45-19.16-86.749-45.343-123.707-77.336V346.995l-1.712-3.722a407.736 407.736 0 0 1 125.419-33.791M833.543 343.274l-1.624 3.722v524.126c-36.959 31.993-78.791 58.176-123.707 77.336V309.482a407.806 407.806 0 0 1 125.331 33.792" fill="#1fbde6" p-id="8250"></path><path d="M419.566 511.98H625.74v20.619H419.566z" fill="#EDEDED" p-id="8251"></path><path d="M522.653 573.748c-56.977 0-103.087-18.307-103.087-41.149v20.575c0 22.924 46.11 41.189 103.087 41.189 56.891 0 103.087-18.266 103.087-41.189v-20.575c0 22.843-46.196 41.149-103.087 41.149M605.125 717.984c-26.862-9.239-54.499-16.081-82.472-20.358a470.376 470.376 0 0 0-82.472 20.358c-20.702 0-20.702-18.133-20.702-41.02v20.661c0 22.754 0 41.234 20.702 41.234a471.812 471.812 0 0 1 82.472-20.876c27.973 4.451 55.609 11.464 82.472 20.876 20.615 0 20.615-18.48 20.615-41.234v-20.661c0 22.887 0 41.02-20.615 41.02" fill="#84283B" p-id="8252"></path><path d="M213.389 777.87v93.251a458.163 458.163 0 0 0 61.852 45.17v0.344c9.068 5.645 18.394 10.775 27.889 15.741l1.625 0.684a509.653 509.653 0 0 0 32.342 15.397v-99.75c-21.305-8.041-42.006-17.798-61.855-29.088-21.816-12.147-42.518-26.351-61.853-41.749M770.063 819.619c-19.932 11.29-40.549 21.047-61.852 29.088v99.75a559.059 559.059 0 0 0 32.337-15.397l1.541-0.684c9.496-4.966 18.908-10.097 27.974-15.741v-0.344c21.817-13.346 42.521-28.404 61.855-45.17V777.87c-19.422 15.398-40.124 29.602-61.855 41.749" fill="#1385B8" p-id="8253"></path><path d="M914.39 408.805h-41.148c0-37.086-104.716-82.425-226.881-82.425v-41.282c128.837 0 268.029 47.312 268.029 123.707M172.152 408.805H130.83c0-76.395 139.191-123.707 268.117-123.707v41.282c-122.165 0-226.795 45.339-226.795 82.425" fill="#2d1609" p-id="8254"></path></svg>