<svg t="1709809639409" class="icon" viewBox="0 0 1194 1024" version="1.1" xmlns="http://www.w3.org/2000/svg" p-id="9671" width="200" height="200"><path d="M213.813626 708.948525q0-13.706338-10.019806-23.726144t-23.82067-10.019806T156.247006 685.222381 146.2272 708.948525 156.247006 732.674669t23.726144 10.019805 23.82067-10.019805 10.019806-23.726144z m742.694474-303.808075q0-26.940044-20.60677-47.263235t-46.979656-20.323191H585.1136q0-10.492438 7.940223-25.522147t17.392871-29.019626 17.39287-35.920059 7.940224-44.521967q0-35.3529-23.442565-51.4224t-60.969573-16.069499q-12.666547 0-47.452288 73.258014-12.666547 23.253512-19.566979 34.313108-21.079403 33.74595-59.079044 76.471915-37.432482 42.725964-53.218402 55.95967-36.392691 30.059417-73.9197 30.059417h-16.825711v337.554024h16.825711q37.999641 0 88.09867 16.920239t102.088588 33.745949 94.715523 16.825712Q682.759443 810.186374 682.759443 722.18223q0-13.800865-2.646741-29.586785 15.78592-8.412856 25.049515-27.696255t9.169067-38.755853-9.452647-36.392691Q732.858473 563.377761 732.858473 526.98507q0-13.233706-5.293483-29.303206t-13.233706-25.049514h174.59039q27.507203 0 47.546815-20.039612t20.039611-47.452288z m67.4919-0.567159q0 55.392511-39.795644 95.471735t-95.282682 40.079223h-89.138461q-2.079582 32.706159-19.472453 62.765576 1.60695 11.154123 1.60695 22.686353 0 53.312929-31.666367 93.959311 0.472632 73.258014-44.900073 115.7004t-119.670511 42.536911q-70.138641 0-169.864067-36.392691-86.49172-31.193735-117.685455-31.193735H146.2272q-27.885309 0-47.735867-19.756032T78.7353 742.694474V405.14045q0-27.979835 19.756033-47.735867t47.735867-19.850559h151.904037q5.293482 0 11.343177-2.363162t12.477494-7.373064 11.815808-9.452647 12.666547-11.910335 10.776018-11.343177 10.019806-11.343176 7.467591-8.980015q34.218582-39.039432 52.74577-67.964532 6.805906-11.154123 17.392871-32.706158t19.472452-37.999641 21.362983-33.273318 29.019626-26.089305 36.67627-9.263594q65.979476 0 108.894494 35.352899t43.009543 99.725426q0 35.825532-11.626755 67.4919h197.276742q54.919879 0 94.999103 40.079223T1024 404.573291z" p-id="9672" fill="#f4ea2a"></path></svg>