<svg t="1709809942730" class="icon" viewBox="0 0 1024 1024" version="1.1" xmlns="http://www.w3.org/2000/svg" p-id="13987" width="200" height="200"><path d="M192 320a128 128 0 0 0-128 128v32H32a32 32 0 0 0 0 64H64V576a128 128 0 0 0 128 128h64a192 192 0 0 0 192-192 64 64 0 1 1 128 0 192 192 0 0 0 192 192h64a128 128 0 0 0 128-128v-32h32a32 32 0 0 0 0-64H960V448a128 128 0 0 0-128-128h-128a128 128 0 0 0-120.832 85.632A127.36 127.36 0 0 0 512 384a127.36 127.36 0 0 0-71.168 21.632A128 128 0 0 0 320 320H192z m0 64h60.224c16.896 0 22.272 22.784 7.168 30.336l-29.248 14.592a128 128 0 0 0-57.216 57.216l-14.592 29.248C150.784 530.496 128 525.12 128 508.16V448a64 64 0 0 1 64-64z" p-id="13988" fill="#707070"></path></svg>