<svg t="1709808775335" class="icon" viewBox="0 0 1024 1024" version="1.1" xmlns="http://www.w3.org/2000/svg" p-id="18247" width="200" height="200"><path d="M556.8 454.4m-398.933333 0a398.933333 398.933333 0 1 0 797.866666 0 398.933333 398.933333 0 1 0-797.866666 0Z" fill="#FFE500" p-id="18248"></path><path d="M556.8 55.466667C337.066667 55.466667 157.866667 234.666667 157.866667 454.4S337.066667 853.333333 556.8 853.333333s398.933333-179.2 398.933333-398.933333S776.533333 55.466667 556.8 55.466667z m0 738.133333c-200.533333 0-362.666667-162.133333-362.666667-362.666667s162.133333-362.666667 362.666667-362.666666 362.666667 162.133333 362.666667 362.666666c0 198.4-162.133333 362.666667-362.666667 362.666667z" fill="#EBCB00" p-id="18249"></path><path d="M437.333333 136.533333a119.466667 29.866667 0 1 0 238.933334 0 119.466667 29.866667 0 1 0-238.933334 0Z" fill="#FFF48C" p-id="18250"></path><path d="M168.533333 836.266667c4.266667-17.066667 17.066667-32 36.266667-36.266667l72.533333-17.066667c2.133333 0 4.266667-2.133333 4.266667-6.4 0-2.133333-2.133333-4.266667-4.266667-6.4l-72.533333-17.066666c-17.066667-4.266667-32-17.066667-36.266667-36.266667l-17.066666-72.533333c0-2.133333-2.133333-4.266667-6.4-4.266667s-4.266667 2.133333-6.4 4.266667l-17.066667 72.533333c-4.266667 17.066667-17.066667 32-36.266667 36.266667l-72.533333 17.066666c-2.133333 0-4.266667 2.133333-4.266667 6.4 0 2.133333 2.133333 4.266667 4.266667 6.4l72.533333 17.066667c17.066667 4.266667 32 17.066667 36.266667 36.266667l17.066667 72.533333c0 2.133333 2.133333 4.266667 6.4 4.266667s4.266667-2.133333 6.4-4.266667l17.066666-72.533333zM951.466667 138.666667l55.466666-19.2c2.133333 0 4.266667-2.133333 4.266667-4.266667s-2.133333-4.266667-4.266667-4.266667L960 96c-6.4-2.133333-10.666667-6.4-12.8-12.8l-14.933333-46.933333c0-2.133333-2.133333-4.266667-4.266667-4.266667s-4.266667 2.133333-4.266667 4.266667l-14.933333 46.933333c-2.133333 6.4-6.4 10.666667-12.8 12.8l-46.933333 14.933333c-2.133333 0-4.266667 2.133333-4.266667 4.266667s2.133333 4.266667 4.266667 4.266667l46.933333 14.933333c6.4 2.133333 10.666667 6.4 12.8 12.8l14.933333 46.933333c0 2.133333 2.133333 4.266667 4.266667 4.266667s4.266667-2.133333 4.266667-4.266667l19.2-55.466666z" fill="#FFFFFF" p-id="18251"></path><path d="M238.933333 960a317.866667 32 0 1 0 635.733334 0 317.866667 32 0 1 0-635.733334 0Z" fill="#45413C" opacity=".15" p-id="18252"></path><path d="M746.666667 554.666667a49.066667 29.866667 0 1 0 98.133333 0 49.066667 29.866667 0 1 0-98.133333 0Z" fill="#FFAA54" p-id="18253"></path><path d="M268.8 554.666667a49.066667 29.866667 0 1 0 98.133333 0 49.066667 29.866667 0 1 0-98.133333 0Z" fill="#FFAA54" p-id="18254"></path><path d="M842.666667 524.8H725.333333c-55.466667 0-104.533333-40.533333-113.066666-96l-14.933334-96c-6.4-34.133333 21.333333-66.133333 57.6-66.133333h256c34.133333 0 61.866667 29.866667 57.6 64l-10.666666 91.733333c-8.533333 57.6-57.6 102.4-115.2 102.4z" fill="#656769" p-id="18255"></path><path d="M612.266667 428.8c6.4 32 23.466667 59.733333 49.066666 76.8l238.933334-238.933333H652.8c-36.266667 0-61.866667 32-57.6 66.133333l17.066667 96z" fill="#87898C" p-id="18256"></path><path d="M270.933333 524.8h115.2c55.466667 0 104.533333-40.533333 113.066667-96l14.933333-96c6.4-34.133333-21.333333-66.133333-57.6-66.133333h-256c-34.133333 0-61.866667 29.866667-57.6 64l10.666667 91.733333c10.666667 57.6 59.733333 102.4 117.333333 102.4z" fill="#656769" p-id="18257"></path><path d="M157.866667 422.4c4.266667 38.4 27.733333 70.4 61.866666 89.6l245.333334-245.333333H206.933333c-34.133333 0-61.866667 29.866667-57.6 64l8.533334 91.733333z" fill="#87898C" p-id="18258"></path></svg>