<svg t="1709467917140" class="icon" viewBox="0 0 1024 1024" version="1.1" xmlns="http://www.w3.org/2000/svg" p-id="2547" width="200" height="200"><path d="M512 170.666667a42.666667 42.666667 0 0 0-42.666667 42.666666c0 72.192-87.296 108.373333-138.346666 57.301334a42.666667 42.666667 0 1 0-60.352 60.352C321.706667 382.037333 285.525333 469.333333 213.333333 469.333333a42.666667 42.666667 0 1 0 0 85.333334c72.213333 0 108.373333 87.296 57.301334 138.346666a42.666667 42.666667 0 0 0 60.352 60.352C382.037333 702.293333 469.333333 738.453333 469.333333 810.666667a42.666667 42.666667 0 1 0 85.333334 0c0-72.213333 87.296-108.373333 138.346666-57.301334a42.666667 42.666667 0 0 0 60.352-60.352C702.293333 641.962667 738.453333 554.666667 810.666667 554.666667a42.666667 42.666667 0 1 0 0-85.333334c-72.192 0-108.373333-87.296-57.301334-138.346666a42.666667 42.666667 0 1 0-60.352-60.352C641.962667 321.706667 554.666667 285.525333 554.666667 213.333333a42.666667 42.666667 0 0 0-42.666667-42.666666z m-127.658667 33.152a128 128 0 0 1 255.317334 0 128 128 0 0 1 180.522666 180.522666 128 128 0 0 1 0 255.317334 128 128 0 0 1-180.522666 180.522666 128 128 0 0 1-255.317334 0 128 128 0 0 1-180.522666-180.522666 128 128 0 0 1 0-255.317334 128 128 0 0 1 180.522666-180.522666z" fill="#e6e6e6" p-id="2548"></path><path d="M512 426.666667a85.333333 85.333333 0 1 0 0 170.666666 85.333333 85.333333 0 0 0 0-170.666666z m-120.682667-35.349334a170.666667 170.666667 0 1 1 241.365334 241.386667 170.666667 170.666667 0 0 1-241.365334-241.386667z" fill="#e6e6e6" p-id="2549"></path></svg>