<svg t="1709462495240" class="icon" viewBox="0 0 1024 1024" version="1.1" xmlns="http://www.w3.org/2000/svg" p-id="1948" width="200" height="200"><path d="M512 597.333333a42.666667 42.666667 0 0 1-42.666667-42.666666v-128a42.666667 42.666667 0 1 1 85.333334 0v128a42.666667 42.666667 0 0 1-42.666667 42.666666z" fill="white" p-id="1949"></path><path d="M448 704a64 64 0 1 1 128 0 64 64 0 0 1-128 0z" fill="white" p-id="1950"></path><path d="M436.48 137.194667c32-60.8 119.04-60.8 151.04 0l355.989333 676.394666c29.909333 56.832-11.306667 125.077333-75.52 125.077334H156.010667c-64.213333 0-105.429333-68.266667-75.52-125.077334L436.48 137.194667zM867.989333 853.333333L512 176.938667 156.010667 853.333333h711.978666z" fill="white" p-id="1951"></path></svg>