<svg t="1709468551371" class="icon" viewBox="0 0 1024 1024" version="1.1" xmlns="http://www.w3.org/2000/svg" p-id="2816" width="200" height="200"><path d="M545.834667 97.834667a42.666667 42.666667 0 0 1 60.330666 0l128 128a42.666667 42.666667 0 0 1 0 60.330666l-128 128a42.666667 42.666667 0 1 1-60.330666-60.330666L601.002667 298.666667H533.333333c-151.36 0-277.333333 125.973333-277.333333 277.333333s125.973333 277.333333 277.333333 277.333333 277.333333-125.973333 277.333334-277.333333a42.666667 42.666667 0 1 1 85.333333 0c0 198.506667-164.16 362.666667-362.666667 362.666667S170.666667 774.506667 170.666667 576s164.16-362.666667 362.666666-362.666667h67.669334l-55.168-55.168a42.666667 42.666667 0 0 1 0-60.330666z" fill="#ffffff" p-id="2817"></path></svg>