<svg t="1709807703964" class="icon" viewBox="0 0 1024 1024" version="1.1" xmlns="http://www.w3.org/2000/svg" p-id="14218" width="200" height="200"><path d="M512 458.666667m-426.666667 0a426.666667 426.666667 0 1 0 853.333334 0 426.666667 426.666667 0 1 0-853.333334 0Z" fill="#FFE500" p-id="14219"></path><path d="M512 32c-234.666667 0-426.666667 192-426.666667 426.666667s192 426.666667 426.666667 426.666666 426.666667-192 426.666667-426.666666-192-426.666667-426.666667-426.666667z m0 789.333333c-215.466667 0-388.266667-174.933333-388.266667-388.266666C123.733333 215.466667 296.533333 42.666667 512 42.666667s388.266667 174.933333 388.266667 388.266666c2.133333 215.466667-172.8 390.4-388.266667 390.4z" fill="#EBCB00" p-id="14220"></path><path d="M384 117.333333a128 32 0 1 0 256 0 128 32 0 1 0-256 0Z" fill="#FFF48C" p-id="14221"></path><path d="M170.666667 960a341.333333 32 0 1 0 682.666666 0 341.333333 32 0 1 0-682.666666 0Z" fill="#45413C" opacity=".15" p-id="14222"></path><path d="M714.666667 565.333333a53.333333 32 0 1 0 106.666666 0 53.333333 32 0 1 0-106.666666 0Z" fill="#FFAA54" p-id="14223"></path><path d="M202.666667 565.333333a53.333333 32 0 1 0 106.666666 0 53.333333 32 0 1 0-106.666666 0Z" fill="#FFAA54" p-id="14224"></path><path d="M381.866667 629.333333c-6.4 0-10.666667 2.133333-14.933334 6.4-4.266667 4.266667-4.266667 10.666667-4.266666 14.933334 10.666667 72.533333 74.666667 125.866667 149.333333 125.866666s138.666667-53.333333 149.333333-125.866666c0-6.4 0-10.666667-4.266666-17.066667-4.266667-4.266667-8.533333-6.4-14.933334-6.4H381.866667z" fill="#FFB0CA" p-id="14225"></path><path d="M631.466667 721.066667c-29.866667-17.066667-72.533333-27.733333-119.466667-27.733334-46.933333 0-89.6 10.666667-119.466667 27.733334 27.733333 36.266667 70.4 57.6 119.466667 57.6s91.733333-21.333333 119.466667-57.6z" fill="#FF87AF" p-id="14226"></path></svg>